<?xml version="1.0" encoding="UTF-8"?>
<svg width="500pt" height="500pt" version="1.1" viewBox="100 20 500 500" xmlns="http://www.w3.org/2000/svg" xmlns:xlink="http://www.w3.org/1999/xlink">
  <style>
    path { fill: white; }
  </style>
  <g>
  <path d="m499.84 130.51c-93.363-93.363-207.59-129.06-300.65-36.051-95.07 95.113-116.07 213.15-62.562 350.83 3.1484 8.0508-0.875 28.438 9.5391 38.895 10.414 10.457 29.836 5.4688 36.707 8.0078 128.84 47.512 254.8 37.188 353.02-61.25 93.008-92.797 57.352-207.03-36.055-300.43zm-12.383 12.383c32.289 32.289 88.508 99.574 85.094 173.64-76.211-33.34-85.922-85.141-144.77-143.98-35.48-35.48-103.82-58.055-116.07-114.62 66.02-4.1992 129.24 38.324 175.74 84.961zm36.051 275.89c-87.5 87.5-199.98 106.62-334.55 56.875-9.1875-3.3672-27.344-1.0508-30.625-3.9375-3.8945-3.9375-1.5742-22.488-5.6016-32.855-51.539-132.48-32.375-241.11 58.625-332.11 25.418-25.375 53.113-40.949 82.773-46.68 13.434 66.012 87.195 90.777 121.5 124.86 58.449 58.672 69.082 114.23 154.88 149.71-5.0742 27.91-19.25 56.438-46.988 84.129z"/>
  <path d="m274.01 374.72 108.11-108.11c1.7695-1.6133 2.8047-3.8789 2.8594-6.2734 0.054688-2.3945-0.875-4.707-2.5703-6.3984-1.6953-1.6914-4.0117-2.6133-6.4062-2.5508-2.3945 0.066406-4.6602 1.1055-6.2656 2.8828l-108.11 108.06c-3.418 3.4219-3.418 8.9648 0 12.383s8.9609 3.418 12.383 0z"/>
  <path d="m445.42 399.61c-0.52344 0.39453-52.938 40.555-115.54 46.242-4.832 0.4375-8.3984 4.707-7.9609 9.5391 0.43359 4.832 4.7031 8.3984 9.5352 7.9609 67.855-6.168 122.5-48.125 124.69-49.832 1.9062-1.3945 3.168-3.5 3.4961-5.8398 0.32813-2.3398-0.30469-4.7109-1.75-6.5781-1.4492-1.8672-3.5898-3.0703-5.9375-3.3359-2.3438-0.26172-4.6992 0.43359-6.5273 1.9297z"/>
  <path d="m344.93 410.64c2.2617 4.2617 7.5469 5.8828 11.812 3.6328 34.762-18.434 68.016-39.586 99.441-63.262 3.8086-2.9844 4.4727-8.4883 1.4883-12.297-2.9844-3.8047-8.4883-4.4688-12.293-1.4844-30.648 23.004-63.031 43.598-96.863 61.598-4.2422 2.2812-5.8477 7.5586-3.5859 11.812z"/>
  <path d="m350 357.61c-2.8438-3.8984-8.3008-4.7578-12.207-1.9258-0.52344 0.35156-50.18 36.445-105.61 71.094-2.0391 1.1953-3.5078 3.1641-4.0742 5.4609-0.5625 2.2969-0.17578 4.7227 1.0781 6.7305 1.2539 2.0039 3.2656 3.4141 5.5781 3.9141 2.3125 0.49609 4.7266 0.039062 6.6953-1.2734 56.043-34.738 106-71.402 106.53-71.793 3.9258-2.8164 4.8242-8.2812 2.0117-12.207z"/>
 </g>
</svg>
