<?xml version="1.0" encoding="UTF-8"?>
<svg width="1200pt" height="1200pt" version="1.1" viewBox="0 0 1200 1200" xmlns="http://www.w3.org/2000/svg">
 <path d="m1107.5 158.94c-6.2383-5.7734-14.641-8.7109-23.102-8.0742l-214.73 16.055v-136.32c0-8.8086-3.793-17.207-10.441-23.016-6.6133-5.7852-15.383-8.4844-24.18-7.3086l-725.79 96.227c-15.207 2.0156-26.57 14.988-26.57 30.336v940.29c0 8.8203 3.793 17.207 10.441 23.016 5.6055 4.9062 12.77 7.5859 20.16 7.5859 1.332 0 2.6875-0.085937 4.0195-0.26562l300.82-39.887v111.83c0 2.4102 0.35938 4.7891 0.92578 7.1172 0.17969 0.74219 0.45703 1.4414 0.69531 2.1719 0.50391 1.5469 1.0781 3.0469 1.8125 4.5 0.39453 0.76953 0.80469 1.4883 1.2461 2.2305 0.83984 1.3438 1.7891 2.6172 2.8438 3.8281 0.51563 0.61328 0.99609 1.2461 1.5703 1.8008 0.25391 0.25391 0.43359 0.55078 0.69531 0.78125 1.4648 1.3438 3.0469 2.543 4.7148 3.5742 0.046875 0.023438 0.058594 0.058594 0.10938 0.085938 0.14453 0.085937 0.30078 0.10937 0.44531 0.20312 2.0273 1.1992 4.1758 2.0898 6.3828 2.7734 0.61328 0.20312 1.2109 0.37109 1.8125 0.52734 2.3984 0.60156 4.8359 1.0078 7.3438 1.0078 0.75781 0 1.5234-0.035156 2.2812-0.097656l637.96-47.734c15.961-1.1875 28.309-14.484 28.309-30.504v-940.29c0.011719-8.5195-3.543-16.633-9.7695-22.438zm-963.62-5.293 664.6-88.117v878.55l-363.77 48.238h-0.035156l-300.78 39.887v-878.56zm912.22 939.62-457.45 34.234 254.3-129.34c0.12109-0.058594 0.22656-0.14453 0.34766-0.21484 0.82812-0.43359 1.5859-0.97266 2.3633-1.4883 0.74219-0.49219 1.5234-0.9375 2.2305-1.4766 0.66016-0.52734 1.2461-1.1289 1.8477-1.6914 0.71875-0.66016 1.4414-1.2734 2.0898-1.9922 0.53906-0.61328 0.99609-1.2852 1.4883-1.9453 0.58984-0.74219 1.1992-1.5 1.6914-2.3047 0.45703-0.71875 0.81641-1.5 1.2109-2.2695 0.42188-0.80469 0.85156-1.6094 1.1992-2.4492 0.32422-0.80469 0.55078-1.6562 0.80469-2.4844 0.27734-0.88672 0.5625-1.7656 0.75781-2.6875 0.16797-0.79297 0.25391-1.6328 0.34766-2.4609 0.13281-0.99609 0.25391-2.0039 0.26562-3.0117 0-0.26562 0.070312-0.52734 0.070312-0.79297v-742.61l186.42-13.945v878.93z"/>
</svg>
