<?xml version="1.0" encoding="UTF-8"?>
<svg width="1200pt" height="1200pt" version="1.1" viewBox="0 0 1200 1200" xmlns="http://www.w3.org/2000/svg">
 <path d="m985.64 0h-514.36c-12.086 0-21.543 9.457-21.543 21.543v107.18h-235.38c-12.086 0-21.543 9.457-21.543 21.543v1028.2c0 12.086 9.457 21.543 21.543 21.543h514.36c12.086 0 21.543-9.457 21.543-21.543v-106.66h235.38c12.086 0 21.543-9.457 21.543-21.543v-1028.7c0-12.086-9.457-21.543-21.543-21.543zm-749.74 1156.9v-985.11h214.36v878.46c0 8.4062 5.7812 14.188 12.609 17.863v1.5781s174.96 87.742 174.96 87.742l-401.93-0.003906zm471.28-13.137-144.48-71.98h144.48zm256.92-115.06-471.28 0.003906v-985.64h471.28v985.64z"/>
</svg>
